<svg id="svg" xmlns="http://www.w3.org/2000/svg" width="400" height="234.37499999999997" viewBox="0 0 400 234.37499999999997">
  <g>
    <path d="M179.192 1.454 C 175.603 3.708,174.799 4.931,151.209 44.019 C 125.280 86.981,125.905 85.555,129.724 93.040 C 131.614 96.746,126.976 93.731,181.848 126.924 C 205.972 141.517,225.604 153.563,225.474 153.692 C 225.345 153.822,221.054 153.582,215.940 153.158 C 198.709 151.730,177.050 150.785,161.523 150.783 L 146.094 150.781 146.094 148.911 C 146.094 139.280,127.784 138.984,124.571 148.563 L 123.695 151.172 116.547 151.563 L 109.399 151.953 108.473 149.712 C 107.100 146.391,103.505 144.537,98.438 144.537 C 91.882 144.537,89.358 146.486,87.269 153.159 C 86.998 154.024,84.857 154.652,79.671 155.386 L 72.450 156.408 70.796 154.450 C 65.070 147.673,52.789 149.907,50.726 158.100 L 49.905 161.361 41.945 163.947 C 25.137 169.407,9.664 178.540,3.054 186.902 L -0.129 190.929 0.168 203.472 C 0.513 218.033,1.707 222.282,7.218 228.542 C 12.209 234.212,12.954 234.375,33.914 234.375 L 52.253 234.375 50.355 231.055 C 48.517 227.840,48.456 227.229,48.447 211.889 C 48.436 194.193,48.757 192.666,53.436 188.121 C 59.275 182.451,51.943 182.767,172.656 182.997 L 280.859 183.203 283.984 184.889 C 292.618 189.548,293.750 192.639,293.750 211.548 C 293.750 226.326,293.661 227.256,291.903 230.727 L 290.056 234.375 303.647 234.375 C 323.309 234.375,329.400 230.054,332.418 213.967 L 332.925 211.265 338.923 211.853 C 359.097 213.832,374.612 206.862,393.555 187.312 C 401.988 178.608,402.512 171.688,395.079 167.156 C 389.442 163.719,386.842 164.688,377.323 173.778 C 361.630 188.766,353.895 192.169,338.477 190.872 L 332.812 190.396 332.813 187.751 C 332.813 181.706,328.116 171.634,323.475 167.729 C 320.201 164.975,317.779 164.382,300.449 162.095 C 283.206 159.819,284.491 160.397,287.189 156.128 C 319.724 104.647,326.921 90.396,323.929 83.373 C 322.248 79.428,322.585 79.646,255.469 39.029 L 191.797 0.495 186.719 0.206 C 182.673 -0.024,181.143 0.229,179.192 1.454 M188.125 11.251 C 193.628 14.106,312.298 86.233,313.622 87.527 C 315.054 88.928,306.793 104.045,291.505 128.000 C 290.975 128.830,180.814 63.355,162.003 51.030 C 160.364 49.957,160.551 49.576,172.022 30.642 C 185.275 8.768,184.692 9.470,188.125 11.251 M210.385 113.798 C 245.708 135.137,274.909 152.857,275.275 153.175 C 276.122 153.911,269.847 164.556,268.191 165.191 C 267.407 165.492,259.630 161.244,246.953 153.589 C 126.114 80.618,137.207 88.128,141.055 81.894 C 144.956 75.575,145.348 75.000,145.754 75.000 C 145.977 75.000,175.061 92.459,210.385 113.798 M63.618 189.008 C 55.031 191.087,54.297 192.912,54.297 212.167 C 54.297 229.692,54.449 230.227,60.313 233.277 C 64.174 235.287,279.257 234.870,282.575 232.847 C 287.641 229.758,287.891 228.741,287.891 211.230 C 287.891 193.655,287.806 193.366,281.641 189.965 C 279.129 188.579,69.193 187.658,63.618 189.008 " stroke="none" fill="#000000" fill-rule="evenodd"></path>
  </g>
</svg>